<svg width="95.802" height="95.802" xmlns="http://www.w3.org/2000/svg">

 <g>
  <title>Layer 1</title>
  <g id="svg_1">
   <g id="svg_2">
    <path fill="#ffffff" id="svg_3" d="m38.664,44.689c0,0 9.065,-0.673 9.065,-11.306c0,-10.632 -7.417,-15.819 -16.813,-15.819l-17.294,0l-0.508,0l-13.114,0l0,59.414l13.114,0l0.508,0l17.294,0c0,0 18.873,0.597 18.873,-17.536c0.001,0 0.824,-14.753 -11.125,-14.753zm-25.042,-16.564l15.069,0l2.226,0c0,0 4.203,0 4.203,6.181c0,6.181 -2.473,7.077 -5.275,7.077l-16.223,0l0,-13.258zm16.497,38.295l-16.497,0l0,-15.879l17.294,0c0,0 6.264,-0.08 6.264,8.16c0,6.871 -4.581,7.65 -7.061,7.719z"/>
    <rect fill="#ffffff" id="svg_4" height="7.317" width="24.514" y="21.064" x="62.18"/>
    <path fill="#ffffff" id="svg_5" d="m74.961,32.682c-22.848,0 -22.828,22.826 -22.828,22.826s-1.566,22.713 22.829,22.713c0,0 20.331,1.162 20.331,-15.801l-10.456,0c0,0 0.349,6.391 -9.526,6.391c0,0 -10.455,0.699 -10.455,-10.34l30.785,0c0,0 3.368,-25.789 -20.68,-25.789zm9.294,17.859l-19.517,0c0,0 1.277,-9.158 10.455,-9.158c9.179,-0.001 9.062,9.158 9.062,9.158z"/>
   </g>
  </g>
  <g id="svg_6"/>
  <g id="svg_7"/>
  <g id="svg_8"/>
  <g id="svg_9"/>
  <g id="svg_10"/>
  <g id="svg_11"/>
  <g id="svg_12"/>
  <g id="svg_13"/>
  <g id="svg_14"/>
  <g id="svg_15"/>
  <g id="svg_16"/>
  <g id="svg_17"/>
  <g id="svg_18"/>
  <g id="svg_19"/>
  <g id="svg_20"/>
 </g>
</svg>