<svg width="169.063" height="169.063" xmlns="http://www.w3.org/2000/svg">

 <g>
  <title>Layer 1</title>
  <g id="svg_1">
   <path fill="#ffffff" id="svg_2" d="m122.406,0l-75.752,0c-25.725,0 -46.654,20.93 -46.654,46.655l0,75.752c0,25.726 20.929,46.655 46.654,46.655l75.752,0c25.727,0 46.656,-20.93 46.656,-46.655l0,-75.752c0.001,-25.725 -20.929,-46.655 -46.656,-46.655zm31.657,122.407c0,17.455 -14.201,31.655 -31.656,31.655l-75.753,0c-17.454,0.001 -31.654,-14.2 -31.654,-31.655l0,-75.752c0,-17.454 14.2,-31.655 31.654,-31.655l75.752,0c17.455,0 31.656,14.201 31.656,31.655l0,75.752l0.001,0z"/>
   <path fill="#ffffff" id="svg_3" d="m84.531,40.97c-24.021,0 -43.563,19.542 -43.563,43.563c0,24.02 19.542,43.561 43.563,43.561s43.563,-19.541 43.563,-43.561c0,-24.021 -19.542,-43.563 -43.563,-43.563zm0,72.123c-15.749,0 -28.563,-12.812 -28.563,-28.561c0,-15.75 12.813,-28.563 28.563,-28.563s28.563,12.813 28.563,28.563c0,15.749 -12.814,28.561 -28.563,28.561z"/>
   <path fill="#ffffff" id="svg_4" d="m129.921,28.251c-2.89,0 -5.729,1.17 -7.77,3.22c-2.051,2.04 -3.23,4.88 -3.23,7.78c0,2.891 1.18,5.73 3.23,7.78c2.04,2.04 4.88,3.22 7.77,3.22c2.9,0 5.73,-1.18 7.78,-3.22c2.05,-2.05 3.22,-4.89 3.22,-7.78c0,-2.9 -1.17,-5.74 -3.22,-7.78c-2.04,-2.05 -4.88,-3.22 -7.78,-3.22z"/>
  </g>
  <g id="svg_5"/>
  <g id="svg_6"/>
  <g id="svg_7"/>
  <g id="svg_8"/>
  <g id="svg_9"/>
  <g id="svg_10"/>
  <g id="svg_11"/>
  <g id="svg_12"/>
  <g id="svg_13"/>
  <g id="svg_14"/>
  <g id="svg_15"/>
  <g id="svg_16"/>
  <g id="svg_17"/>
  <g id="svg_18"/>
  <g id="svg_19"/>
 </g>
</svg>